<?xml version="1.0" encoding="UTF-8"?>
<svg width="100" height="100" viewBox="0 0 100 100" xmlns="http://www.w3.org/2000/svg">
  <!-- Leaf pattern -->
  <path d="M50,20 C60,20 70,30 70,40 C70,50 60,60 50,60 C40,60 30,50 30,40 C30,30 40,20 50,20 Z" 
        fill="none" 
        stroke="#4ade80" 
        stroke-width="1" 
        opacity="0.1"/>
  
  <!-- Shield pattern -->
  <path d="M50,10 L70,20 L70,40 C70,55 60,70 50,75 C40,70 30,55 30,40 L30,20 Z" 
        fill="none" 
        stroke="#4ade80" 
        stroke-width="1" 
        opacity="0.1"/>
  
  <!-- Lock pattern -->
  <path d="M45,35 L55,35 L55,45 L45,45 Z M50,30 C55,30 60,35 60,40 L60,50 C60,55 55,60 50,60 C45,60 40,55 40,50 L40,40 C40,35 45,30 50,30 Z" 
        fill="none" 
        stroke="#4ade80" 
        stroke-width="1" 
        opacity="0.1"/>
</svg> 